# xmcd
# 
# Track frame offsets:
#     150
#     16657
#     33228
#     38156
#     54523
#     71371
#     92275
#     116482
#     132541
#     146755
#     167193
# 
# Disc length: 2527
# 
# Revision: 2
# Processed by: cddbd v1.5.2PL0 Copyright (c) Steve Scherf et al.
# Submitted via: fre:ac v1.0.31
# 
DISCID=8b09dd0b
DTITLE=Divine Heresy - Bringer Of Plagues
DYEAR=2009
DGENRE=Rock/Pop
TTITLE0=Facebreaker
TTITLE1=The Battle Of J. Casey
TTITLE2=Undivine Prophecies
TTITLE3=Bringer Of Plagues
TTITLE4=Redefine
TTITLE5=Anarchaos
TTITLE6=Monolithic Doomsday Devices
TTITLE7=Letter To Mother
TTITLE8=Enemy Kill
TTITLE9=Darkness Embedded
TTITLE10=The End Begins
EXTD=
EXTT0=
EXTT1=
EXTT2=
EXTT3=
EXTT4=
EXTT5=
EXTT6=
EXTT7=
EXTT8=
EXTT9=
EXTT10=
PLAYORDER=
